<svg xmlns="http://www.w3.org/2000/svg" width="800" height="500" viewBox="0 0 800 500">
<rect x="0" y="0" width="100%" height="100%" fill="white" />
<line x1="60" y1="440" x2="740" y2="440" stroke="#444" stroke-width="2" />
<line x1="60" y1="440" x2="60" y2="60" stroke="#444" stroke-width="2" />
<polyline points="709.09,422.73 686.22,420.60 663.64,418.47 641.38,416.34 619.44,414.21 597.82,412.08 576.54,409.95 555.61,407.82 535.03,405.69 514.81,403.56 494.97,401.43 475.50,399.30 456.43,397.17 437.76,395.04 419.49,392.91 401.65,390.78 384.24,388.65 367.27,386.52 350.75,384.39 334.68,382.26 319.09,380.13 303.98,378.00 289.36,375.87 275.24,373.74 261.62,371.61 248.53,369.48 235.97,367.35 223.95,365.23 212.47,363.10 201.55,360.97 191.20,358.84 181.42,356.71 172.23,354.58 163.62,352.45 155.61,350.32 148.21,348.19 141.42,346.06 135.24,343.93 129.69,341.80 124.77,339.67 120.48,337.54 116.83,335.41 113.82,333.28 111.45,331.15 109.73,329.02 108.66,326.89 108.23,324.76 107.91,291.68 105.71,289.55 104.15,287.42 103.25,285.29 102.99,283.16 102.97,250.07 100.93,247.94 99.54,245.81 98.81,243.68 98.72,241.55 97.13,206.34 95.92,204.21 95.35,202.08 94.32,164.74 93.27,162.61 92.88,160.48 92.50,123.14 91.62,121.01 91.40,118.88 90.96,79.40 90.91,77.27" fill="none" stroke="#1f77b4" stroke-width="2" />
<g fill="#1f77b4">
  <circle cx="709.09" cy="422.73" r="4" />
  <circle cx="686.22" cy="420.60" r="4" />
  <circle cx="663.64" cy="418.47" r="4" />
  <circle cx="641.38" cy="416.34" r="4" />
  <circle cx="619.44" cy="414.21" r="4" />
  <circle cx="597.82" cy="412.08" r="4" />
  <circle cx="576.54" cy="409.95" r="4" />
  <circle cx="555.61" cy="407.82" r="4" />
  <circle cx="535.03" cy="405.69" r="4" />
  <circle cx="514.81" cy="403.56" r="4" />
  <circle cx="494.97" cy="401.43" r="4" />
  <circle cx="475.50" cy="399.30" r="4" />
  <circle cx="456.43" cy="397.17" r="4" />
  <circle cx="437.76" cy="395.04" r="4" />
  <circle cx="419.49" cy="392.91" r="4" />
  <circle cx="401.65" cy="390.78" r="4" />
  <circle cx="384.24" cy="388.65" r="4" />
  <circle cx="367.27" cy="386.52" r="4" />
  <circle cx="350.75" cy="384.39" r="4" />
  <circle cx="334.68" cy="382.26" r="4" />
  <circle cx="319.09" cy="380.13" r="4" />
  <circle cx="303.98" cy="378.00" r="4" />
  <circle cx="289.36" cy="375.87" r="4" />
  <circle cx="275.24" cy="373.74" r="4" />
  <circle cx="261.62" cy="371.61" r="4" />
  <circle cx="248.53" cy="369.48" r="4" />
  <circle cx="235.97" cy="367.35" r="4" />
  <circle cx="223.95" cy="365.23" r="4" />
  <circle cx="212.47" cy="363.10" r="4" />
  <circle cx="201.55" cy="360.97" r="4" />
  <circle cx="191.20" cy="358.84" r="4" />
  <circle cx="181.42" cy="356.71" r="4" />
  <circle cx="172.23" cy="354.58" r="4" />
  <circle cx="163.62" cy="352.45" r="4" />
  <circle cx="155.61" cy="350.32" r="4" />
  <circle cx="148.21" cy="348.19" r="4" />
  <circle cx="141.42" cy="346.06" r="4" />
  <circle cx="135.24" cy="343.93" r="4" />
  <circle cx="129.69" cy="341.80" r="4" />
  <circle cx="124.77" cy="339.67" r="4" />
  <circle cx="120.48" cy="337.54" r="4" />
  <circle cx="116.83" cy="335.41" r="4" />
  <circle cx="113.82" cy="333.28" r="4" />
  <circle cx="111.45" cy="331.15" r="4" />
  <circle cx="109.73" cy="329.02" r="4" />
  <circle cx="108.66" cy="326.89" r="4" />
  <circle cx="108.23" cy="324.76" r="4" />
  <circle cx="107.91" cy="291.68" r="4" />
  <circle cx="105.71" cy="289.55" r="4" />
  <circle cx="104.15" cy="287.42" r="4" />
  <circle cx="103.25" cy="285.29" r="4" />
  <circle cx="102.99" cy="283.16" r="4" />
  <circle cx="102.97" cy="250.07" r="4" />
  <circle cx="100.93" cy="247.94" r="4" />
  <circle cx="99.54" cy="245.81" r="4" />
  <circle cx="98.81" cy="243.68" r="4" />
  <circle cx="98.72" cy="241.55" r="4" />
  <circle cx="97.13" cy="206.34" r="4" />
  <circle cx="95.92" cy="204.21" r="4" />
  <circle cx="95.35" cy="202.08" r="4" />
  <circle cx="94.32" cy="164.74" r="4" />
  <circle cx="93.27" cy="162.61" r="4" />
  <circle cx="92.88" cy="160.48" r="4" />
  <circle cx="92.50" cy="123.14" r="4" />
  <circle cx="91.62" cy="121.01" r="4" />
  <circle cx="91.40" cy="118.88" r="4" />
  <circle cx="90.96" cy="79.40" r="4" />
  <circle cx="90.91" cy="77.27" r="4" />
</g>
<text x="400" y="30" text-anchor="middle" font-size="20" font-family="Arial, sans-serif">Efficient Frontier</text>
<text x="400" y="490" text-anchor="middle" font-size="16" font-family="Arial, sans-serif">Annualised volatility</text>
<text transform="rotate(-90)" x="-250" y="20" text-anchor="middle" font-size="16" font-family="Arial, sans-serif">Annualised return</text>
</svg>