<svg xmlns="http://www.w3.org/2000/svg" width="800" height="500" viewBox="0 0 800 500">
<rect x="0" y="0" width="100%" height="100%" fill="white" />
<line x1="60" y1="440" x2="740" y2="440" stroke="#444" stroke-width="2" />
<line x1="60" y1="440" x2="60" y2="60" stroke="#444" stroke-width="2" />
<polyline points="90.91,422.73 91.00,419.15 91.03,418.96 91.21,418.77 91.31,415.39 91.38,415.19 91.61,415.00 91.86,411.62 91.98,411.43 92.24,411.23 92.65,407.85 92.80,407.66 93.11,407.46 93.57,407.27 93.63,404.28 93.67,404.08 93.86,403.89 94.21,403.70 94.71,403.50 94.84,400.51 94.92,400.32 95.15,400.12 95.54,399.93 96.07,399.74 96.28,396.74 96.40,396.55 96.67,396.36 97.09,396.16 97.67,395.97 97.95,393.17 97.95,392.97 98.11,392.78 98.42,392.59 98.88,392.40 99.50,392.20 99.80,389.40 99.84,389.21 100.04,389.01 100.39,388.82 100.89,388.63 101.54,388.44 101.88,385.63 101.96,385.44 102.20,385.25 102.58,385.05 103.12,384.86 103.81,384.67 104.18,381.86 104.30,381.67 104.57,381.48 105.00,381.29 105.57,381.09 106.30,380.90 106.68,378.29 106.69,378.10 106.85,377.90 107.17,377.71 107.63,377.52 108.24,377.33 109.00,377.13 109.37,374.52 109.42,374.33 109.62,374.14 109.97,373.94 110.47,373.75 111.12,373.56 111.92,373.37 112.27,370.76 112.36,370.56 112.60,370.37 112.99,370.18 113.52,369.98 114.21,369.79 115.04,369.60 115.38,366.99 115.51,366.80 115.79,366.60 116.21,366.41 116.78,366.22 117.50,366.02 118.36,365.83 118.67,363.41 118.69,363.22 118.86,363.03 119.17,362.84 119.63,362.64 120.24,362.45 120.99,362.26 121.88,362.06 122.15,359.65 122.21,359.45 122.41,359.26 122.76,359.07 123.25,358.87 123.89,358.68 124.68,358.49 125.60,358.30 125.82,355.88 125.91,355.69 126.15,355.49 126.54,355.30 127.07,355.11 127.74,354.91 128.55,354.72 129.51,354.53 129.68,352.11 129.81,351.92 130.09,351.73 130.51,351.53 131.07,351.34 131.77,351.15 132.62,350.95 133.61,350.76 133.70,348.54 133.73,348.34 133.90,348.15 134.21,347.96 134.66,347.77 135.26,347.57 135.99,347.38 136.87,347.19 137.89,346.99 137.90,344.77 137.96,344.58 138.17,344.38 138.51,344.19 139.00,344.00 139.62,343.81 140.39,343.61 141.30,343.42 142.27,341.00 142.37,340.81 142.61,340.62 142.99,340.42 143.51,340.23 144.17,340.04 144.97,339.85 145.90,339.65 146.82,337.23 146.96,337.04 147.23,336.85 147.64,336.66 148.19,336.46 148.88,336.27 149.71,336.08 150.67,335.88 151.51,333.66 151.54,333.47 151.71,333.27 152.02,333.08 152.46,332.89 153.04,332.70 153.76,332.50 154.62,332.31 155.61,332.12 156.36,329.89 156.42,329.70 156.63,329.51 156.97,329.31 157.45,329.12 158.06,328.93 158.81,328.74 159.69,328.54 160.71,328.35 161.37,326.13 161.47,325.93 161.71,325.74 162.08,325.55 162.59,325.35 163.23,325.16 164.01,324.97 164.92,324.78 165.96,324.58 166.53,322.55 166.53,322.36 166.67,322.17 166.94,321.97 167.35,321.78 167.88,321.59 168.56,321.39 169.36,321.20 170.30,321.01 171.36,320.82 171.82,318.78 171.85,318.59 172.03,318.40 172.33,318.21 172.76,318.01 173.33,317.82 174.03,317.63 174.86,317.43 175.82,317.24 176.91,317.05 177.25,315.02 177.32,314.82 177.53,314.63 177.86,314.44 178.33,314.24 178.92,314.05 179.65,313.86 180.51,313.67 181.49,313.47 182.61,313.28 182.83,311.25 182.94,311.06 183.17,310.86 183.54,310.67 184.03,310.48 184.66,310.28 185.41,310.09 186.29,309.90 187.30,309.71 188.44,309.51 188.54,307.67 188.55,307.48 188.69,307.29 188.96,307.10 189.35,306.90 189.88,306.71 190.53,306.52 191.31,306.32 192.22,306.13 193.25,305.94 194.37,303.91 194.41,303.71 194.58,303.52 194.88,303.33 195.30,303.14 195.86,302.94 196.53,302.75 197.34,302.56 198.27,302.36 199.33,302.17 200.32,300.14 200.40,299.95 200.60,299.75 200.93,299.56 201.38,299.37 201.96,299.18 202.67,298.98 203.50,298.79 204.45,298.60 205.53,298.40 206.41,296.37 206.52,296.18 206.75,295.99 207.11,295.79 207.59,295.60 208.20,295.41 208.93,295.22 209.78,295.02 210.75,294.83 211.85,294.64 212.60,292.80 212.62,292.60 212.76,292.41 213.02,292.22 213.41,292.03 213.92,291.83 214.55,291.64 215.30,291.45 216.18,291.25 217.18,291.06 218.30,290.87 218.90,289.03 218.95,288.84 219.12,288.64 219.41,288.45 219.83,288.26 220.36,288.07 221.02,287.87 221.80,287.68 222.70,287.49 223.72,287.29 224.86,287.10 225.32,285.26 225.40,285.07 225.60,284.88 225.92,284.68 226.36,284.49 226.92,284.30 227.61,284.11 228.41,283.91 229.33,283.72 230.37,283.53 231.53,283.33 231.85,281.50 231.96,281.30 232.19,281.11 232.54,280.92 233.01,280.72 233.60,280.53 234.30,280.34 235.13,280.15 236.07,279.95 237.13,279.76 238.30,279.57 238.47,277.92 238.50,277.73 238.64,277.54 238.89,277.34 239.27,277.15 239.76,276.96 240.38,276.76 241.10,276.57 241.95,276.38 242.91,276.19 243.99,275.99 245.19,275.80 245.19,274.15 245.25,273.96 245.41,273.77 245.70,273.58 246.10,273.38 246.62,273.19 247.26,273.00 248.01,272.80 248.88,272.61 249.86,272.42 250.96,272.23 252.02,270.39 252.10,270.19 252.30,270.00 252.61,269.81 253.04,269.61 253.58,269.42 254.24,269.23 255.02,269.04 255.90,268.84 256.91,268.65 258.02,268.46 258.94,266.62 259.05,266.43 259.28,266.23 259.62,266.04 260.07,265.85 260.64,265.65 261.32,265.46 262.12,265.27 263.03,265.08 264.05,264.88 265.18,264.69 265.94,263.04 265.96,262.85 266.10,262.66 266.36,262.47 266.72,262.27 267.20,262.08 267.79,261.89 268.50,261.69 269.31,261.50 270.24,261.31 271.28,261.12 272.43,260.92 273.02,259.28 273.08,259.08 273.25,258.89 273.53,258.70 273.92,258.51 274.42,258.31 275.04,258.12 275.76,257.93 276.60,257.73 277.55,257.54 278.60,257.35 279.77,257.16 280.20,255.51 280.29,255.32 280.48,255.12 280.79,254.93 281.20,254.74 281.73,254.55 282.37,254.35 283.11,254.16 283.97,253.97 284.94,253.77 286.01,253.58 287.19,253.39 287.47,251.94 287.47,251.74 287.58,251.55 287.81,251.36 288.14,251.16 288.58,250.97 289.13,250.78 289.79,250.59 290.55,250.39 291.43,250.20 292.41,250.01 293.50,249.81 294.70,249.62 294.80,248.17 294.83,247.98 294.97,247.78 295.21,247.59 295.57,247.40 296.03,247.20 296.61,247.01 297.29,246.82 298.07,246.63 298.97,246.43 299.97,246.24 301.08,246.05 302.21,244.40 302.27,244.21 302.43,244.01 302.70,243.82 303.09,243.63 303.57,243.44 304.17,243.24 304.87,243.05 305.67,242.86 306.59,242.66 307.60,242.47 308.73,242.28 309.70,240.63 309.79,240.44 309.98,240.25 310.28,240.05 310.68,239.86 311.19,239.67 311.80,239.48 312.52,239.28 313.35,239.09 314.28,238.90 315.31,238.70 316.45,238.51 317.26,237.06 317.27,236.87 317.38,236.67 317.60,236.48 317.92,236.29 318.35,236.09 318.88,235.90 319.52,235.71 320.26,235.52 321.10,235.32 322.05,235.13 323.10,234.94 324.25,234.74 324.88,233.29 324.92,233.10 325.06,232.91 325.30,232.71 325.64,232.52 326.09,232.33 326.65,232.13 327.30,231.94 328.06,231.75 328.92,231.56 329.89,231.36 330.95,231.17 332.12,230.98 332.58,229.52 332.64,229.33 332.80,229.14 333.07,228.95 333.44,228.75 333.91,228.56 334.48,228.37 335.16,228.17 335.94,227.98 336.82,227.79 337.80,227.60 338.88,227.40 340.34,225.76 340.43,225.56 340.62,225.37 340.91,225.18 341.30,224.99 341.79,224.79 342.39,224.60 343.08,224.41 343.88,224.21 344.78,224.02 345.77,223.83 348.17,222.18 348.18,221.99 348.29,221.80 348.50,221.60 348.82,221.41 349.23,221.22 349.75,221.02 350.36,220.83 351.07,220.64 351.89,220.45 352.80,220.25 356.04,218.41 356.08,218.22 356.22,218.03 356.46,217.84 356.79,217.64 357.23,217.45 357.76,217.26 358.40,217.06 359.13,216.87 359.96,216.68 363.99,214.65 364.05,214.45 364.21,214.26 364.47,214.07 364.83,213.88 365.29,213.68 365.84,213.49 366.50,213.30 367.25,213.10 371.99,210.88 372.08,210.69 372.27,210.49 372.55,210.30 372.93,210.11 373.41,209.92 373.98,209.72 374.65,209.53 380.04,207.31 380.06,207.11 380.17,206.92 380.38,206.73 380.69,206.53 381.09,206.34 381.59,206.15 382.18,205.96 388.15,203.54 388.19,203.35 388.33,203.15 388.56,202.96 388.89,202.77 389.31,202.57 389.83,202.38 396.31,199.77 396.37,199.58 396.53,199.38 396.79,199.19 397.14,199.00 397.58,198.81 404.53,196.00 404.62,195.81 404.80,195.62 405.08,195.42 405.45,195.23 412.78,192.43 412.80,192.24 412.91,192.04 413.12,191.85 413.42,191.66 421.08,188.66 421.13,188.47 421.26,188.28 421.49,188.08 429.44,184.89 429.50,184.70 429.66,184.51 437.84,181.32 437.84,181.13 437.93,180.93 446.27,177.55 446.30,177.36 454.75,173.78 463.29,170.21 471.92,166.64 480.63,163.06 489.42,159.49 498.29,155.91 507.23,152.34 516.25,148.76 525.34,145.19 534.50,141.61 543.72,138.04 553.01,134.46 562.36,130.89 571.78,127.32 581.25,123.74 590.78,120.17 600.37,116.59 610.01,113.02 619.70,109.44 629.45,105.87 639.24,102.29 649.09,98.72 658.98,95.15 668.91,91.57 678.89,88.00 688.92,84.42 698.98,80.85 709.09,77.27" fill="none" stroke="#1f77b4" stroke-width="2" />
<g fill="#1f77b4">
  <circle cx="90.91" cy="422.73" r="4" />
  <circle cx="91.00" cy="419.15" r="4" />
  <circle cx="91.03" cy="418.96" r="4" />
  <circle cx="91.21" cy="418.77" r="4" />
  <circle cx="91.31" cy="415.39" r="4" />
  <circle cx="91.38" cy="415.19" r="4" />
  <circle cx="91.61" cy="415.00" r="4" />
  <circle cx="91.86" cy="411.62" r="4" />
  <circle cx="91.98" cy="411.43" r="4" />
  <circle cx="92.24" cy="411.23" r="4" />
  <circle cx="92.65" cy="407.85" r="4" />
  <circle cx="92.80" cy="407.66" r="4" />
  <circle cx="93.11" cy="407.46" r="4" />
  <circle cx="93.57" cy="407.27" r="4" />
  <circle cx="93.63" cy="404.28" r="4" />
  <circle cx="93.67" cy="404.08" r="4" />
  <circle cx="93.86" cy="403.89" r="4" />
  <circle cx="94.21" cy="403.70" r="4" />
  <circle cx="94.71" cy="403.50" r="4" />
  <circle cx="94.84" cy="400.51" r="4" />
  <circle cx="94.92" cy="400.32" r="4" />
  <circle cx="95.15" cy="400.12" r="4" />
  <circle cx="95.54" cy="399.93" r="4" />
  <circle cx="96.07" cy="399.74" r="4" />
  <circle cx="96.28" cy="396.74" r="4" />
  <circle cx="96.40" cy="396.55" r="4" />
  <circle cx="96.67" cy="396.36" r="4" />
  <circle cx="97.09" cy="396.16" r="4" />
  <circle cx="97.67" cy="395.97" r="4" />
  <circle cx="97.95" cy="393.17" r="4" />
  <circle cx="97.95" cy="392.97" r="4" />
  <circle cx="98.11" cy="392.78" r="4" />
  <circle cx="98.42" cy="392.59" r="4" />
  <circle cx="98.88" cy="392.40" r="4" />
  <circle cx="99.50" cy="392.20" r="4" />
  <circle cx="99.80" cy="389.40" r="4" />
  <circle cx="99.84" cy="389.21" r="4" />
  <circle cx="100.04" cy="389.01" r="4" />
  <circle cx="100.39" cy="388.82" r="4" />
  <circle cx="100.89" cy="388.63" r="4" />
  <circle cx="101.54" cy="388.44" r="4" />
  <circle cx="101.88" cy="385.63" r="4" />
  <circle cx="101.96" cy="385.44" r="4" />
  <circle cx="102.20" cy="385.25" r="4" />
  <circle cx="102.58" cy="385.05" r="4" />
  <circle cx="103.12" cy="384.86" r="4" />
  <circle cx="103.81" cy="384.67" r="4" />
  <circle cx="104.18" cy="381.86" r="4" />
  <circle cx="104.30" cy="381.67" r="4" />
  <circle cx="104.57" cy="381.48" r="4" />
  <circle cx="105.00" cy="381.29" r="4" />
  <circle cx="105.57" cy="381.09" r="4" />
  <circle cx="106.30" cy="380.90" r="4" />
  <circle cx="106.68" cy="378.29" r="4" />
  <circle cx="106.69" cy="378.10" r="4" />
  <circle cx="106.85" cy="377.90" r="4" />
  <circle cx="107.17" cy="377.71" r="4" />
  <circle cx="107.63" cy="377.52" r="4" />
  <circle cx="108.24" cy="377.33" r="4" />
  <circle cx="109.00" cy="377.13" r="4" />
  <circle cx="109.37" cy="374.52" r="4" />
  <circle cx="109.42" cy="374.33" r="4" />
  <circle cx="109.62" cy="374.14" r="4" />
  <circle cx="109.97" cy="373.94" r="4" />
  <circle cx="110.47" cy="373.75" r="4" />
  <circle cx="111.12" cy="373.56" r="4" />
  <circle cx="111.92" cy="373.37" r="4" />
  <circle cx="112.27" cy="370.76" r="4" />
  <circle cx="112.36" cy="370.56" r="4" />
  <circle cx="112.60" cy="370.37" r="4" />
  <circle cx="112.99" cy="370.18" r="4" />
  <circle cx="113.52" cy="369.98" r="4" />
  <circle cx="114.21" cy="369.79" r="4" />
  <circle cx="115.04" cy="369.60" r="4" />
  <circle cx="115.38" cy="366.99" r="4" />
  <circle cx="115.51" cy="366.80" r="4" />
  <circle cx="115.79" cy="366.60" r="4" />
  <circle cx="116.21" cy="366.41" r="4" />
  <circle cx="116.78" cy="366.22" r="4" />
  <circle cx="117.50" cy="366.02" r="4" />
  <circle cx="118.36" cy="365.83" r="4" />
  <circle cx="118.67" cy="363.41" r="4" />
  <circle cx="118.69" cy="363.22" r="4" />
  <circle cx="118.86" cy="363.03" r="4" />
  <circle cx="119.17" cy="362.84" r="4" />
  <circle cx="119.63" cy="362.64" r="4" />
  <circle cx="120.24" cy="362.45" r="4" />
  <circle cx="120.99" cy="362.26" r="4" />
  <circle cx="121.88" cy="362.06" r="4" />
  <circle cx="122.15" cy="359.65" r="4" />
  <circle cx="122.21" cy="359.45" r="4" />
  <circle cx="122.41" cy="359.26" r="4" />
  <circle cx="122.76" cy="359.07" r="4" />
  <circle cx="123.25" cy="358.87" r="4" />
  <circle cx="123.89" cy="358.68" r="4" />
  <circle cx="124.68" cy="358.49" r="4" />
  <circle cx="125.60" cy="358.30" r="4" />
  <circle cx="125.82" cy="355.88" r="4" />
  <circle cx="125.91" cy="355.69" r="4" />
  <circle cx="126.15" cy="355.49" r="4" />
  <circle cx="126.54" cy="355.30" r="4" />
  <circle cx="127.07" cy="355.11" r="4" />
  <circle cx="127.74" cy="354.91" r="4" />
  <circle cx="128.55" cy="354.72" r="4" />
  <circle cx="129.51" cy="354.53" r="4" />
  <circle cx="129.68" cy="352.11" r="4" />
  <circle cx="129.81" cy="351.92" r="4" />
  <circle cx="130.09" cy="351.73" r="4" />
  <circle cx="130.51" cy="351.53" r="4" />
  <circle cx="131.07" cy="351.34" r="4" />
  <circle cx="131.77" cy="351.15" r="4" />
  <circle cx="132.62" cy="350.95" r="4" />
  <circle cx="133.61" cy="350.76" r="4" />
  <circle cx="133.70" cy="348.54" r="4" />
  <circle cx="133.73" cy="348.34" r="4" />
  <circle cx="133.90" cy="348.15" r="4" />
  <circle cx="134.21" cy="347.96" r="4" />
  <circle cx="134.66" cy="347.77" r="4" />
  <circle cx="135.26" cy="347.57" r="4" />
  <circle cx="135.99" cy="347.38" r="4" />
  <circle cx="136.87" cy="347.19" r="4" />
  <circle cx="137.89" cy="346.99" r="4" />
  <circle cx="137.90" cy="344.77" r="4" />
  <circle cx="137.96" cy="344.58" r="4" />
  <circle cx="138.17" cy="344.38" r="4" />
  <circle cx="138.51" cy="344.19" r="4" />
  <circle cx="139.00" cy="344.00" r="4" />
  <circle cx="139.62" cy="343.81" r="4" />
  <circle cx="140.39" cy="343.61" r="4" />
  <circle cx="141.30" cy="343.42" r="4" />
  <circle cx="142.27" cy="341.00" r="4" />
  <circle cx="142.37" cy="340.81" r="4" />
  <circle cx="142.61" cy="340.62" r="4" />
  <circle cx="142.99" cy="340.42" r="4" />
  <circle cx="143.51" cy="340.23" r="4" />
  <circle cx="144.17" cy="340.04" r="4" />
  <circle cx="144.97" cy="339.85" r="4" />
  <circle cx="145.90" cy="339.65" r="4" />
  <circle cx="146.82" cy="337.23" r="4" />
  <circle cx="146.96" cy="337.04" r="4" />
  <circle cx="147.23" cy="336.85" r="4" />
  <circle cx="147.64" cy="336.66" r="4" />
  <circle cx="148.19" cy="336.46" r="4" />
  <circle cx="148.88" cy="336.27" r="4" />
  <circle cx="149.71" cy="336.08" r="4" />
  <circle cx="150.67" cy="335.88" r="4" />
  <circle cx="151.51" cy="333.66" r="4" />
  <circle cx="151.54" cy="333.47" r="4" />
  <circle cx="151.71" cy="333.27" r="4" />
  <circle cx="152.02" cy="333.08" r="4" />
  <circle cx="152.46" cy="332.89" r="4" />
  <circle cx="153.04" cy="332.70" r="4" />
  <circle cx="153.76" cy="332.50" r="4" />
  <circle cx="154.62" cy="332.31" r="4" />
  <circle cx="155.61" cy="332.12" r="4" />
  <circle cx="156.36" cy="329.89" r="4" />
  <circle cx="156.42" cy="329.70" r="4" />
  <circle cx="156.63" cy="329.51" r="4" />
  <circle cx="156.97" cy="329.31" r="4" />
  <circle cx="157.45" cy="329.12" r="4" />
  <circle cx="158.06" cy="328.93" r="4" />
  <circle cx="158.81" cy="328.74" r="4" />
  <circle cx="159.69" cy="328.54" r="4" />
  <circle cx="160.71" cy="328.35" r="4" />
  <circle cx="161.37" cy="326.13" r="4" />
  <circle cx="161.47" cy="325.93" r="4" />
  <circle cx="161.71" cy="325.74" r="4" />
  <circle cx="162.08" cy="325.55" r="4" />
  <circle cx="162.59" cy="325.35" r="4" />
  <circle cx="163.23" cy="325.16" r="4" />
  <circle cx="164.01" cy="324.97" r="4" />
  <circle cx="164.92" cy="324.78" r="4" />
  <circle cx="165.96" cy="324.58" r="4" />
  <circle cx="166.53" cy="322.55" r="4" />
  <circle cx="166.53" cy="322.36" r="4" />
  <circle cx="166.67" cy="322.17" r="4" />
  <circle cx="166.94" cy="321.97" r="4" />
  <circle cx="167.35" cy="321.78" r="4" />
  <circle cx="167.88" cy="321.59" r="4" />
  <circle cx="168.56" cy="321.39" r="4" />
  <circle cx="169.36" cy="321.20" r="4" />
  <circle cx="170.30" cy="321.01" r="4" />
  <circle cx="171.36" cy="320.82" r="4" />
  <circle cx="171.82" cy="318.78" r="4" />
  <circle cx="171.85" cy="318.59" r="4" />
  <circle cx="172.03" cy="318.40" r="4" />
  <circle cx="172.33" cy="318.21" r="4" />
  <circle cx="172.76" cy="318.01" r="4" />
  <circle cx="173.33" cy="317.82" r="4" />
  <circle cx="174.03" cy="317.63" r="4" />
  <circle cx="174.86" cy="317.43" r="4" />
  <circle cx="175.82" cy="317.24" r="4" />
  <circle cx="176.91" cy="317.05" r="4" />
  <circle cx="177.25" cy="315.02" r="4" />
  <circle cx="177.32" cy="314.82" r="4" />
  <circle cx="177.53" cy="314.63" r="4" />
  <circle cx="177.86" cy="314.44" r="4" />
  <circle cx="178.33" cy="314.24" r="4" />
  <circle cx="178.92" cy="314.05" r="4" />
  <circle cx="179.65" cy="313.86" r="4" />
  <circle cx="180.51" cy="313.67" r="4" />
  <circle cx="181.49" cy="313.47" r="4" />
  <circle cx="182.61" cy="313.28" r="4" />
  <circle cx="182.83" cy="311.25" r="4" />
  <circle cx="182.94" cy="311.06" r="4" />
  <circle cx="183.17" cy="310.86" r="4" />
  <circle cx="183.54" cy="310.67" r="4" />
  <circle cx="184.03" cy="310.48" r="4" />
  <circle cx="184.66" cy="310.28" r="4" />
  <circle cx="185.41" cy="310.09" r="4" />
  <circle cx="186.29" cy="309.90" r="4" />
  <circle cx="187.30" cy="309.71" r="4" />
  <circle cx="188.44" cy="309.51" r="4" />
  <circle cx="188.54" cy="307.67" r="4" />
  <circle cx="188.55" cy="307.48" r="4" />
  <circle cx="188.69" cy="307.29" r="4" />
  <circle cx="188.96" cy="307.10" r="4" />
  <circle cx="189.35" cy="306.90" r="4" />
  <circle cx="189.88" cy="306.71" r="4" />
  <circle cx="190.53" cy="306.52" r="4" />
  <circle cx="191.31" cy="306.32" r="4" />
  <circle cx="192.22" cy="306.13" r="4" />
  <circle cx="193.25" cy="305.94" r="4" />
  <circle cx="194.37" cy="303.91" r="4" />
  <circle cx="194.41" cy="303.71" r="4" />
  <circle cx="194.58" cy="303.52" r="4" />
  <circle cx="194.88" cy="303.33" r="4" />
  <circle cx="195.30" cy="303.14" r="4" />
  <circle cx="195.86" cy="302.94" r="4" />
  <circle cx="196.53" cy="302.75" r="4" />
  <circle cx="197.34" cy="302.56" r="4" />
  <circle cx="198.27" cy="302.36" r="4" />
  <circle cx="199.33" cy="302.17" r="4" />
  <circle cx="200.32" cy="300.14" r="4" />
  <circle cx="200.40" cy="299.95" r="4" />
  <circle cx="200.60" cy="299.75" r="4" />
  <circle cx="200.93" cy="299.56" r="4" />
  <circle cx="201.38" cy="299.37" r="4" />
  <circle cx="201.96" cy="299.18" r="4" />
  <circle cx="202.67" cy="298.98" r="4" />
  <circle cx="203.50" cy="298.79" r="4" />
  <circle cx="204.45" cy="298.60" r="4" />
  <circle cx="205.53" cy="298.40" r="4" />
  <circle cx="206.41" cy="296.37" r="4" />
  <circle cx="206.52" cy="296.18" r="4" />
  <circle cx="206.75" cy="295.99" r="4" />
  <circle cx="207.11" cy="295.79" r="4" />
  <circle cx="207.59" cy="295.60" r="4" />
  <circle cx="208.20" cy="295.41" r="4" />
  <circle cx="208.93" cy="295.22" r="4" />
  <circle cx="209.78" cy="295.02" r="4" />
  <circle cx="210.75" cy="294.83" r="4" />
  <circle cx="211.85" cy="294.64" r="4" />
  <circle cx="212.60" cy="292.80" r="4" />
  <circle cx="212.62" cy="292.60" r="4" />
  <circle cx="212.76" cy="292.41" r="4" />
  <circle cx="213.02" cy="292.22" r="4" />
  <circle cx="213.41" cy="292.03" r="4" />
  <circle cx="213.92" cy="291.83" r="4" />
  <circle cx="214.55" cy="291.64" r="4" />
  <circle cx="215.30" cy="291.45" r="4" />
  <circle cx="216.18" cy="291.25" r="4" />
  <circle cx="217.18" cy="291.06" r="4" />
  <circle cx="218.30" cy="290.87" r="4" />
  <circle cx="218.90" cy="289.03" r="4" />
  <circle cx="218.95" cy="288.84" r="4" />
  <circle cx="219.12" cy="288.64" r="4" />
  <circle cx="219.41" cy="288.45" r="4" />
  <circle cx="219.83" cy="288.26" r="4" />
  <circle cx="220.36" cy="288.07" r="4" />
  <circle cx="221.02" cy="287.87" r="4" />
  <circle cx="221.80" cy="287.68" r="4" />
  <circle cx="222.70" cy="287.49" r="4" />
  <circle cx="223.72" cy="287.29" r="4" />
  <circle cx="224.86" cy="287.10" r="4" />
  <circle cx="225.32" cy="285.26" r="4" />
  <circle cx="225.40" cy="285.07" r="4" />
  <circle cx="225.60" cy="284.88" r="4" />
  <circle cx="225.92" cy="284.68" r="4" />
  <circle cx="226.36" cy="284.49" r="4" />
  <circle cx="226.92" cy="284.30" r="4" />
  <circle cx="227.61" cy="284.11" r="4" />
  <circle cx="228.41" cy="283.91" r="4" />
  <circle cx="229.33" cy="283.72" r="4" />
  <circle cx="230.37" cy="283.53" r="4" />
  <circle cx="231.53" cy="283.33" r="4" />
  <circle cx="231.85" cy="281.50" r="4" />
  <circle cx="231.96" cy="281.30" r="4" />
  <circle cx="232.19" cy="281.11" r="4" />
  <circle cx="232.54" cy="280.92" r="4" />
  <circle cx="233.01" cy="280.72" r="4" />
  <circle cx="233.60" cy="280.53" r="4" />
  <circle cx="234.30" cy="280.34" r="4" />
  <circle cx="235.13" cy="280.15" r="4" />
  <circle cx="236.07" cy="279.95" r="4" />
  <circle cx="237.13" cy="279.76" r="4" />
  <circle cx="238.30" cy="279.57" r="4" />
  <circle cx="238.47" cy="277.92" r="4" />
  <circle cx="238.50" cy="277.73" r="4" />
  <circle cx="238.64" cy="277.54" r="4" />
  <circle cx="238.89" cy="277.34" r="4" />
  <circle cx="239.27" cy="277.15" r="4" />
  <circle cx="239.76" cy="276.96" r="4" />
  <circle cx="240.38" cy="276.76" r="4" />
  <circle cx="241.10" cy="276.57" r="4" />
  <circle cx="241.95" cy="276.38" r="4" />
  <circle cx="242.91" cy="276.19" r="4" />
  <circle cx="243.99" cy="275.99" r="4" />
  <circle cx="245.19" cy="275.80" r="4" />
  <circle cx="245.19" cy="274.15" r="4" />
  <circle cx="245.25" cy="273.96" r="4" />
  <circle cx="245.41" cy="273.77" r="4" />
  <circle cx="245.70" cy="273.58" r="4" />
  <circle cx="246.10" cy="273.38" r="4" />
  <circle cx="246.62" cy="273.19" r="4" />
  <circle cx="247.26" cy="273.00" r="4" />
  <circle cx="248.01" cy="272.80" r="4" />
  <circle cx="248.88" cy="272.61" r="4" />
  <circle cx="249.86" cy="272.42" r="4" />
  <circle cx="250.96" cy="272.23" r="4" />
  <circle cx="252.02" cy="270.39" r="4" />
  <circle cx="252.10" cy="270.19" r="4" />
  <circle cx="252.30" cy="270.00" r="4" />
  <circle cx="252.61" cy="269.81" r="4" />
  <circle cx="253.04" cy="269.61" r="4" />
  <circle cx="253.58" cy="269.42" r="4" />
  <circle cx="254.24" cy="269.23" r="4" />
  <circle cx="255.02" cy="269.04" r="4" />
  <circle cx="255.90" cy="268.84" r="4" />
  <circle cx="256.91" cy="268.65" r="4" />
  <circle cx="258.02" cy="268.46" r="4" />
  <circle cx="258.94" cy="266.62" r="4" />
  <circle cx="259.05" cy="266.43" r="4" />
  <circle cx="259.28" cy="266.23" r="4" />
  <circle cx="259.62" cy="266.04" r="4" />
  <circle cx="260.07" cy="265.85" r="4" />
  <circle cx="260.64" cy="265.65" r="4" />
  <circle cx="261.32" cy="265.46" r="4" />
  <circle cx="262.12" cy="265.27" r="4" />
  <circle cx="263.03" cy="265.08" r="4" />
  <circle cx="264.05" cy="264.88" r="4" />
  <circle cx="265.18" cy="264.69" r="4" />
  <circle cx="265.94" cy="263.04" r="4" />
  <circle cx="265.96" cy="262.85" r="4" />
  <circle cx="266.10" cy="262.66" r="4" />
  <circle cx="266.36" cy="262.47" r="4" />
  <circle cx="266.72" cy="262.27" r="4" />
  <circle cx="267.20" cy="262.08" r="4" />
  <circle cx="267.79" cy="261.89" r="4" />
  <circle cx="268.50" cy="261.69" r="4" />
  <circle cx="269.31" cy="261.50" r="4" />
  <circle cx="270.24" cy="261.31" r="4" />
  <circle cx="271.28" cy="261.12" r="4" />
  <circle cx="272.43" cy="260.92" r="4" />
  <circle cx="273.02" cy="259.28" r="4" />
  <circle cx="273.08" cy="259.08" r="4" />
  <circle cx="273.25" cy="258.89" r="4" />
  <circle cx="273.53" cy="258.70" r="4" />
  <circle cx="273.92" cy="258.51" r="4" />
  <circle cx="274.42" cy="258.31" r="4" />
  <circle cx="275.04" cy="258.12" r="4" />
  <circle cx="275.76" cy="257.93" r="4" />
  <circle cx="276.60" cy="257.73" r="4" />
  <circle cx="277.55" cy="257.54" r="4" />
  <circle cx="278.60" cy="257.35" r="4" />
  <circle cx="279.77" cy="257.16" r="4" />
  <circle cx="280.20" cy="255.51" r="4" />
  <circle cx="280.29" cy="255.32" r="4" />
  <circle cx="280.48" cy="255.12" r="4" />
  <circle cx="280.79" cy="254.93" r="4" />
  <circle cx="281.20" cy="254.74" r="4" />
  <circle cx="281.73" cy="254.55" r="4" />
  <circle cx="282.37" cy="254.35" r="4" />
  <circle cx="283.11" cy="254.16" r="4" />
  <circle cx="283.97" cy="253.97" r="4" />
  <circle cx="284.94" cy="253.77" r="4" />
  <circle cx="286.01" cy="253.58" r="4" />
  <circle cx="287.19" cy="253.39" r="4" />
  <circle cx="287.47" cy="251.94" r="4" />
  <circle cx="287.47" cy="251.74" r="4" />
  <circle cx="287.58" cy="251.55" r="4" />
  <circle cx="287.81" cy="251.36" r="4" />
  <circle cx="288.14" cy="251.16" r="4" />
  <circle cx="288.58" cy="250.97" r="4" />
  <circle cx="289.13" cy="250.78" r="4" />
  <circle cx="289.79" cy="250.59" r="4" />
  <circle cx="290.55" cy="250.39" r="4" />
  <circle cx="291.43" cy="250.20" r="4" />
  <circle cx="292.41" cy="250.01" r="4" />
  <circle cx="293.50" cy="249.81" r="4" />
  <circle cx="294.70" cy="249.62" r="4" />
  <circle cx="294.80" cy="248.17" r="4" />
  <circle cx="294.83" cy="247.98" r="4" />
  <circle cx="294.97" cy="247.78" r="4" />
  <circle cx="295.21" cy="247.59" r="4" />
  <circle cx="295.57" cy="247.40" r="4" />
  <circle cx="296.03" cy="247.20" r="4" />
  <circle cx="296.61" cy="247.01" r="4" />
  <circle cx="297.29" cy="246.82" r="4" />
  <circle cx="298.07" cy="246.63" r="4" />
  <circle cx="298.97" cy="246.43" r="4" />
  <circle cx="299.97" cy="246.24" r="4" />
  <circle cx="301.08" cy="246.05" r="4" />
  <circle cx="302.21" cy="244.40" r="4" />
  <circle cx="302.27" cy="244.21" r="4" />
  <circle cx="302.43" cy="244.01" r="4" />
  <circle cx="302.70" cy="243.82" r="4" />
  <circle cx="303.09" cy="243.63" r="4" />
  <circle cx="303.57" cy="243.44" r="4" />
  <circle cx="304.17" cy="243.24" r="4" />
  <circle cx="304.87" cy="243.05" r="4" />
  <circle cx="305.67" cy="242.86" r="4" />
  <circle cx="306.59" cy="242.66" r="4" />
  <circle cx="307.60" cy="242.47" r="4" />
  <circle cx="308.73" cy="242.28" r="4" />
  <circle cx="309.70" cy="240.63" r="4" />
  <circle cx="309.79" cy="240.44" r="4" />
  <circle cx="309.98" cy="240.25" r="4" />
  <circle cx="310.28" cy="240.05" r="4" />
  <circle cx="310.68" cy="239.86" r="4" />
  <circle cx="311.19" cy="239.67" r="4" />
  <circle cx="311.80" cy="239.48" r="4" />
  <circle cx="312.52" cy="239.28" r="4" />
  <circle cx="313.35" cy="239.09" r="4" />
  <circle cx="314.28" cy="238.90" r="4" />
  <circle cx="315.31" cy="238.70" r="4" />
  <circle cx="316.45" cy="238.51" r="4" />
  <circle cx="317.26" cy="237.06" r="4" />
  <circle cx="317.27" cy="236.87" r="4" />
  <circle cx="317.38" cy="236.67" r="4" />
  <circle cx="317.60" cy="236.48" r="4" />
  <circle cx="317.92" cy="236.29" r="4" />
  <circle cx="318.35" cy="236.09" r="4" />
  <circle cx="318.88" cy="235.90" r="4" />
  <circle cx="319.52" cy="235.71" r="4" />
  <circle cx="320.26" cy="235.52" r="4" />
  <circle cx="321.10" cy="235.32" r="4" />
  <circle cx="322.05" cy="235.13" r="4" />
  <circle cx="323.10" cy="234.94" r="4" />
  <circle cx="324.25" cy="234.74" r="4" />
  <circle cx="324.88" cy="233.29" r="4" />
  <circle cx="324.92" cy="233.10" r="4" />
  <circle cx="325.06" cy="232.91" r="4" />
  <circle cx="325.30" cy="232.71" r="4" />
  <circle cx="325.64" cy="232.52" r="4" />
  <circle cx="326.09" cy="232.33" r="4" />
  <circle cx="326.65" cy="232.13" r="4" />
  <circle cx="327.30" cy="231.94" r="4" />
  <circle cx="328.06" cy="231.75" r="4" />
  <circle cx="328.92" cy="231.56" r="4" />
  <circle cx="329.89" cy="231.36" r="4" />
  <circle cx="330.95" cy="231.17" r="4" />
  <circle cx="332.12" cy="230.98" r="4" />
  <circle cx="332.58" cy="229.52" r="4" />
  <circle cx="332.64" cy="229.33" r="4" />
  <circle cx="332.80" cy="229.14" r="4" />
  <circle cx="333.07" cy="228.95" r="4" />
  <circle cx="333.44" cy="228.75" r="4" />
  <circle cx="333.91" cy="228.56" r="4" />
  <circle cx="334.48" cy="228.37" r="4" />
  <circle cx="335.16" cy="228.17" r="4" />
  <circle cx="335.94" cy="227.98" r="4" />
  <circle cx="336.82" cy="227.79" r="4" />
  <circle cx="337.80" cy="227.60" r="4" />
  <circle cx="338.88" cy="227.40" r="4" />
  <circle cx="340.34" cy="225.76" r="4" />
  <circle cx="340.43" cy="225.56" r="4" />
  <circle cx="340.62" cy="225.37" r="4" />
  <circle cx="340.91" cy="225.18" r="4" />
  <circle cx="341.30" cy="224.99" r="4" />
  <circle cx="341.79" cy="224.79" r="4" />
  <circle cx="342.39" cy="224.60" r="4" />
  <circle cx="343.08" cy="224.41" r="4" />
  <circle cx="343.88" cy="224.21" r="4" />
  <circle cx="344.78" cy="224.02" r="4" />
  <circle cx="345.77" cy="223.83" r="4" />
  <circle cx="348.17" cy="222.18" r="4" />
  <circle cx="348.18" cy="221.99" r="4" />
  <circle cx="348.29" cy="221.80" r="4" />
  <circle cx="348.50" cy="221.60" r="4" />
  <circle cx="348.82" cy="221.41" r="4" />
  <circle cx="349.23" cy="221.22" r="4" />
  <circle cx="349.75" cy="221.02" r="4" />
  <circle cx="350.36" cy="220.83" r="4" />
  <circle cx="351.07" cy="220.64" r="4" />
  <circle cx="351.89" cy="220.45" r="4" />
  <circle cx="352.80" cy="220.25" r="4" />
  <circle cx="356.04" cy="218.41" r="4" />
  <circle cx="356.08" cy="218.22" r="4" />
  <circle cx="356.22" cy="218.03" r="4" />
  <circle cx="356.46" cy="217.84" r="4" />
  <circle cx="356.79" cy="217.64" r="4" />
  <circle cx="357.23" cy="217.45" r="4" />
  <circle cx="357.76" cy="217.26" r="4" />
  <circle cx="358.40" cy="217.06" r="4" />
  <circle cx="359.13" cy="216.87" r="4" />
  <circle cx="359.96" cy="216.68" r="4" />
  <circle cx="363.99" cy="214.65" r="4" />
  <circle cx="364.05" cy="214.45" r="4" />
  <circle cx="364.21" cy="214.26" r="4" />
  <circle cx="364.47" cy="214.07" r="4" />
  <circle cx="364.83" cy="213.88" r="4" />
  <circle cx="365.29" cy="213.68" r="4" />
  <circle cx="365.84" cy="213.49" r="4" />
  <circle cx="366.50" cy="213.30" r="4" />
  <circle cx="367.25" cy="213.10" r="4" />
  <circle cx="371.99" cy="210.88" r="4" />
  <circle cx="372.08" cy="210.69" r="4" />
  <circle cx="372.27" cy="210.49" r="4" />
  <circle cx="372.55" cy="210.30" r="4" />
  <circle cx="372.93" cy="210.11" r="4" />
  <circle cx="373.41" cy="209.92" r="4" />
  <circle cx="373.98" cy="209.72" r="4" />
  <circle cx="374.65" cy="209.53" r="4" />
  <circle cx="380.04" cy="207.31" r="4" />
  <circle cx="380.06" cy="207.11" r="4" />
  <circle cx="380.17" cy="206.92" r="4" />
  <circle cx="380.38" cy="206.73" r="4" />
  <circle cx="380.69" cy="206.53" r="4" />
  <circle cx="381.09" cy="206.34" r="4" />
  <circle cx="381.59" cy="206.15" r="4" />
  <circle cx="382.18" cy="205.96" r="4" />
  <circle cx="388.15" cy="203.54" r="4" />
  <circle cx="388.19" cy="203.35" r="4" />
  <circle cx="388.33" cy="203.15" r="4" />
  <circle cx="388.56" cy="202.96" r="4" />
  <circle cx="388.89" cy="202.77" r="4" />
  <circle cx="389.31" cy="202.57" r="4" />
  <circle cx="389.83" cy="202.38" r="4" />
  <circle cx="396.31" cy="199.77" r="4" />
  <circle cx="396.37" cy="199.58" r="4" />
  <circle cx="396.53" cy="199.38" r="4" />
  <circle cx="396.79" cy="199.19" r="4" />
  <circle cx="397.14" cy="199.00" r="4" />
  <circle cx="397.58" cy="198.81" r="4" />
  <circle cx="404.53" cy="196.00" r="4" />
  <circle cx="404.62" cy="195.81" r="4" />
  <circle cx="404.80" cy="195.62" r="4" />
  <circle cx="405.08" cy="195.42" r="4" />
  <circle cx="405.45" cy="195.23" r="4" />
  <circle cx="412.78" cy="192.43" r="4" />
  <circle cx="412.80" cy="192.24" r="4" />
  <circle cx="412.91" cy="192.04" r="4" />
  <circle cx="413.12" cy="191.85" r="4" />
  <circle cx="413.42" cy="191.66" r="4" />
  <circle cx="421.08" cy="188.66" r="4" />
  <circle cx="421.13" cy="188.47" r="4" />
  <circle cx="421.26" cy="188.28" r="4" />
  <circle cx="421.49" cy="188.08" r="4" />
  <circle cx="429.44" cy="184.89" r="4" />
  <circle cx="429.50" cy="184.70" r="4" />
  <circle cx="429.66" cy="184.51" r="4" />
  <circle cx="437.84" cy="181.32" r="4" />
  <circle cx="437.84" cy="181.13" r="4" />
  <circle cx="437.93" cy="180.93" r="4" />
  <circle cx="446.27" cy="177.55" r="4" />
  <circle cx="446.30" cy="177.36" r="4" />
  <circle cx="454.75" cy="173.78" r="4" />
  <circle cx="463.29" cy="170.21" r="4" />
  <circle cx="471.92" cy="166.64" r="4" />
  <circle cx="480.63" cy="163.06" r="4" />
  <circle cx="489.42" cy="159.49" r="4" />
  <circle cx="498.29" cy="155.91" r="4" />
  <circle cx="507.23" cy="152.34" r="4" />
  <circle cx="516.25" cy="148.76" r="4" />
  <circle cx="525.34" cy="145.19" r="4" />
  <circle cx="534.50" cy="141.61" r="4" />
  <circle cx="543.72" cy="138.04" r="4" />
  <circle cx="553.01" cy="134.46" r="4" />
  <circle cx="562.36" cy="130.89" r="4" />
  <circle cx="571.78" cy="127.32" r="4" />
  <circle cx="581.25" cy="123.74" r="4" />
  <circle cx="590.78" cy="120.17" r="4" />
  <circle cx="600.37" cy="116.59" r="4" />
  <circle cx="610.01" cy="113.02" r="4" />
  <circle cx="619.70" cy="109.44" r="4" />
  <circle cx="629.45" cy="105.87" r="4" />
  <circle cx="639.24" cy="102.29" r="4" />
  <circle cx="649.09" cy="98.72" r="4" />
  <circle cx="658.98" cy="95.15" r="4" />
  <circle cx="668.91" cy="91.57" r="4" />
  <circle cx="678.89" cy="88.00" r="4" />
  <circle cx="688.92" cy="84.42" r="4" />
  <circle cx="698.98" cy="80.85" r="4" />
  <circle cx="709.09" cy="77.27" r="4" />
</g>
<text x="400" y="30" text-anchor="middle" font-size="20" font-family="Arial, sans-serif">Efficient Frontier</text>
<text x="400" y="490" text-anchor="middle" font-size="16" font-family="Arial, sans-serif">Annualised volatility</text>
<text transform="rotate(-90)" x="-250" y="20" text-anchor="middle" font-size="16" font-family="Arial, sans-serif">Annualised return</text>
</svg>